# xmcd
#
# Track frame offsets: 
#        150
#        44010
#        82074
#        122348
#        131918
#        171935
#        199265
#        229018
#
# Disc length: 3565 seconds
#
# Revision: 1
# Processed by: cddbd v1.5.2PL0 Copyright (c) Steve Scherf et al.
# Submitted via: ExactAudioCopy v0.99pb5
#
DISCID=700deb08
DTITLE=Wojciech Niedziela - Domingo's Tunes
DYEAR=2004
DGENRE=Jazz
TTITLE0=To Kiss The Ivories
TTITLE1=Blues z o.o.
TTITLE2=Room Of Greens
TTITLE3=Bloody Study
TTITLE4=BLLVNS
TTITLE5=Sunday At Sundays'
TTITLE6=Long Days, Lonely Nights
TTITLE7=Water Walker Dog
EXTD=YEAR: 2004
EXTT0=
EXTT1=
EXTT2=
EXTT3=
EXTT4=
EXTT5=
EXTT6=
EXTT7=
PLAYORDER=
